<svg xmlns="http://www.w3.org/2000/svg" viewBox="0 0 148.72 108.48"><defs><style>.cls-1{fill:#142d49;}.cls-2{fill:#7491b1;}</style></defs><g id="Layer_2" data-name="Layer 2"><g id="Layer_11" data-name="Layer 11"><g id="Layer_8" data-name="Layer 8"><g id="Layer_6" data-name="Layer 6"><g id="Layer_5" data-name="Layer 5"><path class="cls-1" d="M95.88,28.31v10A1.12,1.12,0,0,0,97,39.46h8.69a1.14,1.14,0,0,1,.76.3c6.5,6,13.17,5.67,20,0a1.14,1.14,0,0,1,.72-.26h4.42a1.06,1.06,0,0,1,.5.12c.71.35,2.62,1.51,2.71,3.58v1.42a1.12,1.12,0,0,0,1.12,1.12h9.44a1.12,1.12,0,0,0,1.12-1.19c-.53-9.14-5-14.87-14.1-16.68l-.24,0h-5.23a1.13,1.13,0,0,1-.79-.33l-2.72-2.73A1.11,1.11,0,0,1,123,24v-3.5a1.12,1.12,0,0,0-1.12-1.12H110.63a1.12,1.12,0,0,0-1.12,1.12v3.4a1.12,1.12,0,0,1-.45.9L106,27.09a1.07,1.07,0,0,1-.69.22L97,27.19A1.12,1.12,0,0,0,95.88,28.31Z"/><path class="cls-1" d="M91.69,25.69,93,26.9a1.88,1.88,0,0,1,.61,1.38V38.92A1.84,1.84,0,0,1,93,40.29l-1.33,1.22a1.87,1.87,0,0,1-1.25.49h-2.7a1.87,1.87,0,0,1-1.86-1.87V27.06a1.86,1.86,0,0,1,1.86-1.86h2.7A1.82,1.82,0,0,1,91.69,25.69Z"/><path class="cls-1" d="M134.34,47.36c-1.87,1.15-1.87,2.31,0,3.46h13.11c1.69-1.15,1.69-2.31,0-3.46Z"/><path class="cls-1" d="M112,17.43V13a4,4,0,0,0-3.79-3.83h-1.38c-4.22,0-13.23,8.76-13.87-2.52a1.09,1.09,0,0,1,0-.18C94-4,105.92,1,108.9,2.43a2.7,2.7,0,0,0,1.94-.22A4.68,4.68,0,0,1,114.2.27a17.75,17.75,0,0,1,2.63-.1,4.82,4.82,0,0,1,4.1,2.06,2.75,2.75,0,0,0,1.88.25c3.08-1.3,16.21-6.26,16,3.79,0,10.23-10,2.61-14,3-.36,0-.72.08-1.08.09a3.63,3.63,0,0,0-3.72,3.54v4.52a.9.9,0,0,1-.9.9h-6.26A.9.9,0,0,1,112,17.43Z"/><rect class="cls-1" y="26.1" width="83.98" height="15.47" rx="1.45"/></g></g><g id="Layer_9" data-name="Layer 9"><path class="cls-1" d="M16.57,52.74a1.13,1.13,0,0,1,1.11.91l7.66,37.84h.15l7.74-37.84a1.13,1.13,0,0,1,1.11-.91H48.66a1.14,1.14,0,0,1,1.13,1.13V106.5a1.14,1.14,0,0,1-1.13,1.14H40.78a1.14,1.14,0,0,1-1.14-1.14V63.81h-.15l-9.57,42.94a1.13,1.13,0,0,1-1.11.89H22a1.14,1.14,0,0,1-1.11-.89L11.35,63.81h-.16V106.5a1.14,1.14,0,0,1-1.13,1.14H2.18A1.14,1.14,0,0,1,1,106.5V53.87a1.14,1.14,0,0,1,1.14-1.13Z"/><path class="cls-1" d="M82.31,53.58l13.93,52.63a1.14,1.14,0,0,1-1.1,1.43H86a1.14,1.14,0,0,1-1.11-.9l-2.15-9.82A1.13,1.13,0,0,0,81.63,96H68.85a1.14,1.14,0,0,0-1.11.89l-2.15,9.82a1.14,1.14,0,0,1-1.11.9H55.34a1.14,1.14,0,0,1-1.1-1.43L68.17,53.58a1.14,1.14,0,0,1,1.1-.84H81.21A1.13,1.13,0,0,1,82.31,53.58ZM79.22,87a1.13,1.13,0,0,0,1.11-1.37l-5-23.31h-.16l-5,23.31A1.14,1.14,0,0,0,71.27,87Z"/><path class="cls-1" d="M128.83,92.26q0,8.76-4.07,12.49t-12.46,3.73a18.64,18.64,0,0,1-7.19-1.19,10.63,10.63,0,0,1-4.46-3.38,12.76,12.76,0,0,1-2.27-5.12,29.69,29.69,0,0,1-.61-6.15V91.4a1.14,1.14,0,0,1,1.14-1.14h7.87a1.14,1.14,0,0,1,1.14,1.14V92a16.59,16.59,0,0,0,1,6.5q1,2.11,4,2.11t4-2.11a16.59,16.59,0,0,0,1-6.5V53.87a1.14,1.14,0,0,1,1.14-1.13h8.8a1.14,1.14,0,0,1,1.13,1.13Z"/><path class="cls-2" d="M137.74,52.74h8.8a1.14,1.14,0,0,1,1.13,1.13V106.5a1.14,1.14,0,0,1-1.13,1.14h-8.8a1.14,1.14,0,0,1-1.14-1.14V53.87A1.14,1.14,0,0,1,137.74,52.74Z"/></g></g></g></g></svg>